<?xml version="1.0" standalone="no"?>
<!DOCTYPE svg PUBLIC "-//W3C//DTD SVG 20010904//EN"
 "http://www.w3.org/TR/2001/REC-SVG-20010904/DTD/svg10.dtd">
<svg version="1.0" xmlns="http://www.w3.org/2000/svg"
 width="301.000000pt" height="301.000000pt" viewBox="0 0 301.000000 301.000000"
 preserveAspectRatio="xMidYMid meet">
<metadata>
Created by potrace 1.14, written by Peter Selinger 2001-2017
</metadata>
<g transform="translate(0.000000,301.000000) scale(0.100000,-0.100000)"
fill="#000000" stroke="none">
<path d="M1585 2886 c-75 -20 -105 -34 -152 -72 -48 -39 -87 -101 -98 -154 -4
-19 -16 -47 -26 -61 -25 -35 -37 -69 -43 -119 -2 -23 -6 -43 -8 -44 -2 -1 -34
-14 -73 -29 -134 -51 -233 -116 -336 -217 -169 -167 -254 -334 -284 -559 -8
-57 -15 -105 -17 -107 -2 -2 -23 3 -45 11 -91 32 -183 35 -228 8 -30 -18 -25
-83 11 -130 52 -69 214 -211 255 -225 7 -2 10 -83 10 -220 -1 -230 7 -294 44
-368 74 -146 252 -212 416 -155 l38 14 6 -37 c19 -120 28 -164 46 -223 61
-196 185 -159 230 68 12 62 14 64 38 58 65 -16 218 -17 281 -1 34 9 64 15 65
14 2 -2 21 -40 44 -85 41 -83 101 -155 138 -167 35 -11 73 11 90 51 17 42 24
165 13 256 -3 31 -4 57 -2 57 2 0 32 -7 65 -16 167 -43 343 47 404 207 13 36
17 87 19 279 2 129 3 242 3 250 1 8 28 33 62 54 77 50 205 177 225 224 17 41
11 79 -14 99 -25 19 -128 15 -202 -7 -48 -14 -66 -16 -71 -8 -4 7 -6 15 -3 19
2 4 -1 31 -6 60 -5 30 -12 68 -15 85 -18 112 -98 290 -175 389 -116 150 -239
238 -476 340 -28 12 -32 19 -36 64 -3 30 -21 84 -46 135 -22 47 -39 94 -37
105 5 27 29 68 71 124 l36 47 -84 -1 c-45 0 -105 -6 -133 -13z"/>
</g>
</svg>
